<svg id="outline" height="512" viewBox="0 0 512 512" width="512" xmlns="http://www.w3.org/2000/svg"><path d="m128 496h256a40.04552 40.04552 0 0 0 40-40v-352a40.04552 40.04552 0 0 0 -40-40h-75.05591l-11.05542-22.11133a46.83292 46.83292 0 0 0 -83.77734 0l-11.05542 22.11133h-75.05591a40.04552 40.04552 0 0 0 -40 40v352a40.04552 40.04552 0 0 0 40 40zm100.42188-446.956a30.83349 30.83349 0 0 1 55.15624 0l7.47803 14.956h-70.1123zm91.57812 30.956v16a16.01833 16.01833 0 0 1 -16 16h-96a16.01833 16.01833 0 0 1 -16-16v-16zm-112 48h96a32.01143 32.01143 0 0 0 27.69482-16h44.30518v336h-240v-336h44.30518a32.01143 32.01143 0 0 0 27.69482 16zm-104-24a24.02718 24.02718 0 0 1 24-24h48v16h-48a8.00008 8.00008 0 0 0 -8 8v352a8.00008 8.00008 0 0 0 8 8h256a8.00008 8.00008 0 0 0 8-8v-352a8.00008 8.00008 0 0 0 -8-8h-48v-16h48a24.02718 24.02718 0 0 1 24 24v352a24.02718 24.02718 0 0 1 -24 24h-256a24.02718 24.02718 0 0 1 -24-24z"/><path d="m160 232h64a8.00008 8.00008 0 0 0 8-8v-32h-16v24h-48v-48h39.35547l-16.01856 20.023-9.67968-9.67969-11.31446 11.31348 16 16a8.00036 8.00036 0 0 0 11.9043-.65918l32-40a8.00046 8.00046 0 0 0 -6.24707-12.99761h-64a8.00008 8.00008 0 0 0 -8 8v64a8.00008 8.00008 0 0 0 8 8z"/><path d="m248 168h24v16h-24z"/><path d="m288 168h72v16h-72z"/><path d="m248 200h48v16h-48z"/><path d="m312 200h48v16h-48z"/><path d="m160 328h64a8.00008 8.00008 0 0 0 8-8v-32h-16v24h-48v-48h39.35547l-16.01856 20.023-9.67968-9.67969-11.31446 11.31348 16 16a8.00036 8.00036 0 0 0 11.9043-.65918l32-40a8.00046 8.00046 0 0 0 -6.24707-12.99761h-64a8.00008 8.00008 0 0 0 -8 8v64a8.00008 8.00008 0 0 0 8 8z"/><path d="m248 264h24v16h-24z"/><path d="m288 264h72v16h-72z"/><path d="m248 296h48v16h-48z"/><path d="m312 296h48v16h-48z"/><path d="m160 424h64a8.00008 8.00008 0 0 0 8-8v-32h-16v24h-48v-48h39.35547l-16.01856 20.023-9.67968-9.67969-11.31446 11.31348 16 16a8.00036 8.00036 0 0 0 11.9043-.65918l32-40a8.00046 8.00046 0 0 0 -6.24707-12.99761h-64a8.00008 8.00008 0 0 0 -8 8v64a8.00008 8.00008 0 0 0 8 8z"/><path d="m248 360h24v16h-24z"/><path d="m288 360h72v16h-72z"/><path d="m248 392h48v16h-48z"/><path d="m312 392h48v16h-48z"/><circle cx="256" cy="48" r="8"/></svg>