<?xml version="1.0" encoding="iso-8859-1"?>
<!-- Generator: Adobe Illustrator 19.0.0, SVG Export Plug-In . SVG Version: 6.00 Build 0)  -->
<svg version="1.1" id="Layer_1" xmlns="http://www.w3.org/2000/svg" xmlns:xlink="http://www.w3.org/1999/xlink" x="0px" y="0px"
	 viewBox="0 0 297 297" style="enable-background:new 0 0 297 297;" xml:space="preserve">
<g>
	<g>
		<g>
			<path d="M91.8,100.203c3.402,1.822,7.528,1.62,10.736-0.519l18.252-12.167v112.75c0,15.281,12.432,27.713,27.713,27.713
				s27.713-12.432,27.713-27.713V87.517l18.252,12.167c3.208,2.141,7.334,2.341,10.736,0.519c3.4-1.82,5.523-5.364,5.523-9.22
				V44.969c0-3.497-1.747-6.762-4.657-8.701L154.301,1.757c-3.513-2.343-8.088-2.343-11.602,0L90.934,36.268
				c-2.91,1.939-4.657,5.204-4.657,8.701v46.014C86.277,94.84,88.4,98.383,91.8,100.203z M107.19,50.566h0.002L148.5,23.027
				l41.308,27.538v20.877l-18.252-12.167c-3.207-2.14-7.335-2.341-10.736-0.519c-3.4,1.82-5.523,5.364-5.523,9.22v132.291
				c0,3.748-3.049,6.798-6.798,6.798s-6.798-3.049-6.798-6.798V67.976c0-3.856-2.123-7.4-5.523-9.22
				c-1.546-0.828-3.243-1.238-4.934-1.238c-2.029,0-4.052,0.59-5.802,1.757L107.19,71.442V50.566z"/>
			<path d="M269.287,241.574H27.713C12.432,241.574,0,254.006,0,269.287S12.432,297,27.713,297h241.574
				C284.568,297,297,284.568,297,269.287C297.001,254.006,284.569,241.574,269.287,241.574z M269.287,276.085H27.713
				c-3.748,0-6.798-3.049-6.798-6.798c0-3.749,3.049-6.798,6.798-6.798h241.574c3.748,0,6.798,3.049,6.798,6.798
				C276.085,273.036,273.035,276.085,269.287,276.085z"/>
		</g>
	</g>
</g>
<g>
</g>
<g>
</g>
<g>
</g>
<g>
</g>
<g>
</g>
<g>
</g>
<g>
</g>
<g>
</g>
<g>
</g>
<g>
</g>
<g>
</g>
<g>
</g>
<g>
</g>
<g>
</g>
<g>
</g>
</svg>
